<svg width="280" height="70" viewBox="0 0 280 70" fill="none" xmlns="http://www.w3.org/2000/svg">
  <!-- Paint palette with brush -->
  <g transform="translate(5, 8)">
    <!-- Palette shadow -->
    <path d="M16 21C11 21 6 26 6 31C6 36 4 41 4 46C4 51 6 56 11 59C16 62 21 63 26 63C31 63 36 61 41 58C46 55 51 51 56 46C61 41 66 36 71 31C76 26 71 21 66 21C61 21 56 23 51 26C46 29 41 31 36 31C31 31 26 29 21 26C18 24 17 21 16 21Z" fill="#e2e8f0" opacity="0.3"/>
    
    <!-- Palette main -->
    <path d="M15 20C10 20 5 25 5 30C5 35 3 40 3 45C3 50 5 55 10 58C15 61 20 62 25 62C30 62 35 60 40 57C45 54 50 50 55 45C60 40 65 35 70 30C75 25 70 20 65 20C60 20 55 22 50 25C45 28 40 30 35 30C30 30 25 28 20 25C17 23 16 20 15 20Z" fill="#1e40af" stroke="#1e3a8a" stroke-width="1"/>
    
    <!-- Paint dots with glow -->
    <circle cx="20" cy="35" r="3.5" fill="#3b82f6" opacity="0.9"/>
    <circle cx="20" cy="35" r="2" fill="#60a5fa"/>
    
    <circle cx="30" cy="30" r="3" fill="#2563eb" opacity="0.9"/>
    <circle cx="30" cy="30" r="1.5" fill="#93c5fd"/>
    
    <circle cx="40" cy="37" r="3.5" fill="#1d4ed8" opacity="0.9"/>
    <circle cx="40" cy="37" r="2" fill="#dbeafe"/>
    
    <circle cx="50" cy="33" r="2.5" fill="#60a5fa" opacity="0.8"/>
    
    <!-- Brush with details -->
    <g transform="rotate(35 55 40)">
      <!-- Brush handle -->
      <rect x="52" y="22" width="2.5" height="22" fill="#8b5cf6" rx="1.25"/>
      <rect x="52.2" y="22" width="2.1" height="20" fill="#a78bfa" rx="1"/>
      
      <!-- Ferrule -->
      <rect x="51.5" y="44" width="3.5" height="7" fill="#6b7280" rx="1"/>
      <rect x="51.7" y="44.5" width="3.1" height="6" fill="#9ca3af" rx="0.8"/>
      
      <!-- Bristles -->
      <path d="M51.5 51 L53.25 58 L55 51 Z" fill="#374151"/>
      <path d="M52 51 L53.25 57 L54.5 51 Z" fill="#4b5563"/>
    </g>
    
    <!-- Artistic paint strokes -->
    <path d="M60 45 Q65 40 70 45 Q72 47 74 45" stroke="#3b82f6" stroke-width="2.5" fill="none" stroke-linecap="round" opacity="0.6"/>
    <path d="M63 50 Q67 47 71 50 Q73 51 75 49" stroke="#60a5fa" stroke-width="2" fill="none" stroke-linecap="round" opacity="0.5"/>
    <path d="M61 42 Q64 39 67 42" stroke="#93c5fd" stroke-width="1.5" fill="none" stroke-linecap="round" opacity="0.4"/>
  </g>
  
  <!-- Artist name with elegant typography -->
  <g transform="translate(90, 0)">
    <text x="0" y="30" font-family="Playfair Display, serif" font-size="20" font-weight="700" fill="#1e40af" letter-spacing="0.5px">VICTORIA</text>
    <text x="0" y="52" font-family="Playfair Display, serif" font-size="20" font-weight="700" fill="#1e40af" letter-spacing="0.5px">OCARĂ</text>
    
    <!-- Decorative underline -->
    <path d="M0 58 Q50 60 100 58" stroke="#60a5fa" stroke-width="1" fill="none" opacity="0.6"/>
  </g>
</svg>